<svg width="20" height="19" viewBox="0 0 20 19" fill="none" xmlns="http://www.w3.org/2000/svg">
<path d="M9.92825 12.1959C11.4881 12.1959 12.7526 10.9889 12.7526 9.49995C12.7526 8.01103 11.4881 6.80401 9.92825 6.80401C8.36842 6.80401 7.10393 8.01103 7.10393 9.49995C7.10393 10.9889 8.36842 12.1959 9.92825 12.1959Z" stroke="black" stroke-linecap="round" stroke-linejoin="round"/>
<path d="M9.92808 16.6889C14.0876 16.6889 17.4596 13.4702 17.4596 9.49976C17.4596 5.52929 14.0876 2.31059 9.92808 2.31059C5.76853 2.31059 2.39656 5.52929 2.39656 9.49976C2.39656 13.4702 5.76853 16.6889 9.92808 16.6889Z" stroke="black" stroke-linecap="round" stroke-linejoin="round"/>
<path d="M9.92825 0.513513V2.31081" stroke="black" stroke-linecap="round" stroke-linejoin="round"/>
<path d="M9.92825 16.6892V18.4865" stroke="black" stroke-linecap="round" stroke-linejoin="round"/>
<path d="M17.4594 9.49995H19.3423" stroke="black" stroke-linecap="round" stroke-linejoin="round"/>
<path d="M0.513513 9.49995H2.39639" stroke="black" stroke-linecap="round" stroke-linejoin="round"/>
</svg>
