<svg width="68" height="42" viewBox="0 0 68 42" fill="none" xmlns="http://www.w3.org/2000/svg">
<path d="M0 5.16932C0 3.79833 0.447767 2.48349 1.2448 1.51406C2.04183 0.544624 3.12283 0 4.25 0H63.75C64.8772 0 65.9582 0.544624 66.7552 1.51406C67.5522 2.48349 68 3.79833 68 5.16932C68 6.54031 67.5522 7.85514 66.7552 8.82458C65.9582 9.79401 64.8772 10.3386 63.75 10.3386H4.25C3.12283 10.3386 2.04183 9.79401 1.2448 8.82458C0.447767 7.85514 0 6.54031 0 5.16932Z" fill="#F7F5F5"/>
<path d="M4.25 31.0159C3.12283 31.0159 2.04183 31.5606 1.2448 32.53C0.447767 33.4994 0 34.8143 0 36.1853C0 37.5562 0.447767 38.8711 1.2448 39.8405C2.04183 40.8099 3.12283 41.3546 4.25 41.3546H38.25C39.3772 41.3546 40.4582 40.8099 41.2552 39.8405C42.0522 38.8711 42.5 37.5562 42.5 36.1853C42.5 34.8143 42.0522 33.4994 41.2552 32.53C40.4582 31.5606 39.3772 31.0159 38.25 31.0159H4.25Z" fill="#F7F5F5"/>
</svg>
