<svg width="92" height="90" viewBox="0 0 92 90" fill="none" xmlns="http://www.w3.org/2000/svg">
<path fill-rule="evenodd" clip-rule="evenodd" d="M46 84.375C56.675 84.375 66.9127 80.2266 74.461 72.8423C82.0094 65.4581 86.25 55.4429 86.25 45C86.25 34.5571 82.0094 24.5419 74.461 17.1577C66.9127 9.77343 56.675 5.625 46 5.625C35.325 5.625 25.0873 9.77343 17.539 17.1577C9.99061 24.5419 5.75 34.5571 5.75 45C5.75 55.4429 9.99061 65.4581 17.539 72.8423C25.0873 80.2266 35.325 84.375 46 84.375ZM46 90C58.2 90 69.9002 85.2589 78.5269 76.8198C87.1536 68.3807 92 56.9347 92 45C92 33.0653 87.1536 21.6193 78.5269 13.1802C69.9002 4.74106 58.2 0 46 0C33.8 0 22.0998 4.74106 13.4731 13.1802C4.84642 21.6193 0 33.0653 0 45C0 56.9347 4.84642 68.3807 13.4731 76.8198C22.0998 85.2589 33.8 90 46 90Z" fill="black"/>
<path fill-rule="evenodd" clip-rule="evenodd" d="M23 45.0001C23 45.746 23.3029 46.4614 23.8421 46.9888C24.3812 47.5163 25.1125 47.8126 25.875 47.8126H59.1847L46.8395 59.8838C46.5722 60.1453 46.3602 60.4558 46.2155 60.7974C46.0708 61.1391 45.9964 61.5053 45.9964 61.8751C45.9964 62.2449 46.0708 62.6111 46.2155 62.9527C46.3602 63.2944 46.5722 63.6048 46.8395 63.8663C47.1068 64.1278 47.4241 64.3353 47.7734 64.4768C48.1226 64.6183 48.497 64.6911 48.875 64.6911C49.253 64.6911 49.6274 64.6183 49.9766 64.4768C50.3259 64.3353 50.6432 64.1278 50.9105 63.8663L68.1605 46.9913C68.4282 46.7301 68.6407 46.4197 68.7856 46.078C68.9305 45.7363 69.0051 45.37 69.0051 45.0001C69.0051 44.6301 68.9305 44.2638 68.7856 43.9221C68.6407 43.5804 68.4282 43.2701 68.1605 43.0088L50.9105 26.1338C50.6432 25.8723 50.3259 25.6649 49.9766 25.5234C49.6274 25.3819 49.253 25.309 48.875 25.309C48.497 25.309 48.1226 25.3819 47.7734 25.5234C47.4241 25.6649 47.1068 25.8723 46.8395 26.1338C46.5722 26.3953 46.3602 26.7058 46.2155 27.0474C46.0708 27.3891 45.9964 27.7553 45.9964 28.1251C45.9964 28.4949 46.0708 28.8611 46.2155 29.2027C46.3602 29.5444 46.5722 29.8548 46.8395 30.1163L59.1847 42.1876H25.875C25.1125 42.1876 24.3812 42.4839 23.8421 43.0113C23.3029 43.5388 23 44.2542 23 45.0001Z" fill="black"/>
</svg>
